# xmcd CD database file
# Generated: Sam Jan 18 12:31:56 2003 by KSCD
# 
# Track frame offsets:
#       150
#       11263
#       14650
#       31426
#       44516
#       54010
#       67343
#       81040
#       92664
#       104160
#       113976
#       122772
#       137395
#       147136
#       157064
#       170068
#       178009
#       194978
#       207228
#
# Disc length: 2890 seconds
#
# Revision: 1
# Processed by: cddbd v1.4PL0 Copyright (c) Steve Scherf et al.
# Submitted via: Kscd 1.3.3
#
DISCID=180b4813
DTITLE=Ohetaler Musikanten - Ohetaler
DYEAR=1900
DGENRE=
TTITLE0=Auf zum Tanz
TTITLE1=Trinkspruch
TTITLE2=A echter Musikant
TTITLE3=Am Woidbachal
TTITLE4=Von Dorf zu Dorf
TTITLE5=Jager Walzer
TTITLE6=Grod zweng Fleiß net
TTITLE7=Flori - Boarisch
TTITLE8=Da Melcherlbauer
TTITLE9=Rastbuacha Ar'e
TTITLE10=Allerweil kann ma net lustig sei
TTITLE11=Alpenrosa
TTITLE12=Kirta Schottisch
TTITLE13=d' Häuslichkeit
TTITLE14=Greitalm Boarisch
TTITLE15=Schuhmacher Walzer
TTITLE16=Und jetzt hör i's scho klinga
TTITLE17=Da Doana entlang
TTITLE18=Beim Hoamfahrn
EXTD=
EXTT0=
EXTT1=
EXTT2=
EXTT3=
EXTT4=
EXTT5=
EXTT6=
EXTT7=
EXTT8=
EXTT9=
EXTT10=
EXTT11=
EXTT12=
EXTT13=
EXTT14=
EXTT15=
EXTT16=
EXTT17=
EXTT18=
PLAYORDER=
